<svg width="256" height="256" viewBox="0 0 256 256" fill="none" xmlns="http://www.w3.org/2000/svg">
<path d="M161 94C161 88.4772 165.477 84 171 84H186C191.523 84 196 88.4772 196 94V209C196 214.523 191.523 219 186 219H113C107.477 219 103 214.523 103 209V199C103 193.477 107.477 189 113 189H151C156.523 189 161 184.523 161 179V176C161 170.477 156.523 166 151 166H119C113.477 166 109 161.523 109 156V147C109 141.477 113.477 137 119 137H151C156.523 137 161 132.523 161 127V94Z" fill="white" stroke="white" stroke-width="6"/>
<path d="M94 162C94 167.523 89.5228 172 84 172H69C63.4772 172 59 167.523 59 162V47C59 41.4772 63.4772 37 69 37H142C147.523 37 152 41.4772 152 47V57C152 62.5228 147.523 67 142 67H104C98.4772 67 94 71.4772 94 77V80C94 85.5228 98.4772 90 104 90H136C141.523 90 146 94.4772 146 100V109C146 114.523 141.523 119 136 119H104C98.4772 119 94 123.477 94 129V162Z" fill="#1677FF" stroke="#1677FF" stroke-width="5"/>
</svg>
